<mxfile host="Electron" modified="2024-04-18T19:38:50.422Z" agent="Mozilla/5.0 (Windows NT 10.0; Win64; x64) AppleWebKit/537.36 (KHTML, like Gecko) draw.io/24.1.0 Chrome/120.0.6099.109 Electron/28.1.0 Safari/537.36" etag="wzpvuPn_GYBhcTAYybmJ" version="24.1.0" type="device">
  <diagram name="Pagina-1" id="E9bDILpVHBI37aP2N4PP">
    <mxGraphModel dx="1036" dy="614" grid="1" gridSize="10" guides="1" tooltips="1" connect="1" arrows="1" fold="1" page="1" pageScale="1" pageWidth="827" pageHeight="1169" math="0" shadow="0">
      <root>
        <mxCell id="0" />
        <mxCell id="1" parent="0" />
        <mxCell id="m-f8hs-Iv13Isb2j7Tvm-20" style="edgeStyle=orthogonalEdgeStyle;rounded=0;orthogonalLoop=1;jettySize=auto;html=1;entryX=0;entryY=0.5;entryDx=0;entryDy=0;" edge="1" parent="1" source="m-f8hs-Iv13Isb2j7Tvm-1" target="m-f8hs-Iv13Isb2j7Tvm-3">
          <mxGeometry relative="1" as="geometry" />
        </mxCell>
        <mxCell id="m-f8hs-Iv13Isb2j7Tvm-21" style="edgeStyle=orthogonalEdgeStyle;rounded=0;orthogonalLoop=1;jettySize=auto;html=1;" edge="1" parent="1" source="m-f8hs-Iv13Isb2j7Tvm-1">
          <mxGeometry relative="1" as="geometry">
            <mxPoint x="350" y="260" as="targetPoint" />
          </mxGeometry>
        </mxCell>
        <mxCell id="m-f8hs-Iv13Isb2j7Tvm-25" style="edgeStyle=orthogonalEdgeStyle;rounded=0;orthogonalLoop=1;jettySize=auto;html=1;entryX=0;entryY=0.5;entryDx=0;entryDy=0;" edge="1" parent="1" source="m-f8hs-Iv13Isb2j7Tvm-1" target="m-f8hs-Iv13Isb2j7Tvm-4">
          <mxGeometry relative="1" as="geometry" />
        </mxCell>
        <mxCell id="m-f8hs-Iv13Isb2j7Tvm-26" style="edgeStyle=orthogonalEdgeStyle;rounded=0;orthogonalLoop=1;jettySize=auto;html=1;entryX=0;entryY=0.5;entryDx=0;entryDy=0;" edge="1" parent="1" source="m-f8hs-Iv13Isb2j7Tvm-1" target="m-f8hs-Iv13Isb2j7Tvm-5">
          <mxGeometry relative="1" as="geometry" />
        </mxCell>
        <mxCell id="m-f8hs-Iv13Isb2j7Tvm-27" style="edgeStyle=orthogonalEdgeStyle;rounded=0;orthogonalLoop=1;jettySize=auto;html=1;entryX=0;entryY=0.5;entryDx=0;entryDy=0;" edge="1" parent="1" source="m-f8hs-Iv13Isb2j7Tvm-1" target="m-f8hs-Iv13Isb2j7Tvm-6">
          <mxGeometry relative="1" as="geometry" />
        </mxCell>
        <mxCell id="m-f8hs-Iv13Isb2j7Tvm-1" value="GIOCATORE" style="rounded=0;whiteSpace=wrap;html=1;" vertex="1" parent="1">
          <mxGeometry x="40" y="230" width="120" height="60" as="geometry" />
        </mxCell>
        <mxCell id="m-f8hs-Iv13Isb2j7Tvm-22" style="edgeStyle=orthogonalEdgeStyle;rounded=0;orthogonalLoop=1;jettySize=auto;html=1;entryX=1;entryY=0.5;entryDx=0;entryDy=0;" edge="1" parent="1" source="m-f8hs-Iv13Isb2j7Tvm-2" target="m-f8hs-Iv13Isb2j7Tvm-3">
          <mxGeometry relative="1" as="geometry" />
        </mxCell>
        <mxCell id="m-f8hs-Iv13Isb2j7Tvm-28" style="edgeStyle=orthogonalEdgeStyle;rounded=0;orthogonalLoop=1;jettySize=auto;html=1;entryX=0;entryY=0.5;entryDx=0;entryDy=0;" edge="1" parent="1" source="m-f8hs-Iv13Isb2j7Tvm-2" target="m-f8hs-Iv13Isb2j7Tvm-7">
          <mxGeometry relative="1" as="geometry" />
        </mxCell>
        <mxCell id="m-f8hs-Iv13Isb2j7Tvm-29" style="edgeStyle=orthogonalEdgeStyle;rounded=0;orthogonalLoop=1;jettySize=auto;html=1;entryX=0;entryY=0.5;entryDx=0;entryDy=0;" edge="1" parent="1" source="m-f8hs-Iv13Isb2j7Tvm-2" target="m-f8hs-Iv13Isb2j7Tvm-13">
          <mxGeometry relative="1" as="geometry">
            <Array as="points">
              <mxPoint x="650" y="138" />
            </Array>
          </mxGeometry>
        </mxCell>
        <mxCell id="m-f8hs-Iv13Isb2j7Tvm-30" style="edgeStyle=orthogonalEdgeStyle;rounded=0;orthogonalLoop=1;jettySize=auto;html=1;entryX=0;entryY=0.5;entryDx=0;entryDy=0;" edge="1" parent="1" source="m-f8hs-Iv13Isb2j7Tvm-2" target="m-f8hs-Iv13Isb2j7Tvm-14">
          <mxGeometry relative="1" as="geometry" />
        </mxCell>
        <mxCell id="m-f8hs-Iv13Isb2j7Tvm-31" style="edgeStyle=orthogonalEdgeStyle;rounded=0;orthogonalLoop=1;jettySize=auto;html=1;entryX=0;entryY=0.5;entryDx=0;entryDy=0;" edge="1" parent="1" source="m-f8hs-Iv13Isb2j7Tvm-2" target="m-f8hs-Iv13Isb2j7Tvm-15">
          <mxGeometry relative="1" as="geometry" />
        </mxCell>
        <mxCell id="m-f8hs-Iv13Isb2j7Tvm-2" value="PERSONAGGIO" style="rounded=0;whiteSpace=wrap;html=1;" vertex="1" parent="1">
          <mxGeometry x="590" y="230" width="120" height="60" as="geometry" />
        </mxCell>
        <mxCell id="m-f8hs-Iv13Isb2j7Tvm-3" value="Recluta" style="rhombus;whiteSpace=wrap;html=1;" vertex="1" parent="1">
          <mxGeometry x="356" y="220" width="80" height="80" as="geometry" />
        </mxCell>
        <mxCell id="m-f8hs-Iv13Isb2j7Tvm-4" value="" style="ellipse;whiteSpace=wrap;html=1;aspect=fixed;fillColor=#0d0c0c;" vertex="1" parent="1">
          <mxGeometry x="120" y="110" width="20" height="20" as="geometry" />
        </mxCell>
        <mxCell id="m-f8hs-Iv13Isb2j7Tvm-5" value="" style="ellipse;whiteSpace=wrap;html=1;aspect=fixed;" vertex="1" parent="1">
          <mxGeometry x="120" y="148" width="20" height="20" as="geometry" />
        </mxCell>
        <mxCell id="m-f8hs-Iv13Isb2j7Tvm-6" value="" style="ellipse;whiteSpace=wrap;html=1;aspect=fixed;" vertex="1" parent="1">
          <mxGeometry x="120" y="190" width="20" height="20" as="geometry" />
        </mxCell>
        <mxCell id="m-f8hs-Iv13Isb2j7Tvm-7" value="" style="ellipse;whiteSpace=wrap;html=1;aspect=fixed;fillColor=#1c1717;" vertex="1" parent="1">
          <mxGeometry x="670" y="90" width="20" height="20" as="geometry" />
        </mxCell>
        <mxCell id="m-f8hs-Iv13Isb2j7Tvm-9" value="username" style="text;html=1;align=center;verticalAlign=middle;whiteSpace=wrap;rounded=0;" vertex="1" parent="1">
          <mxGeometry x="146" y="105" width="60" height="30" as="geometry" />
        </mxCell>
        <mxCell id="m-f8hs-Iv13Isb2j7Tvm-11" value="password" style="text;html=1;align=center;verticalAlign=middle;whiteSpace=wrap;rounded=0;" vertex="1" parent="1">
          <mxGeometry x="147" y="185" width="60" height="30" as="geometry" />
        </mxCell>
        <mxCell id="m-f8hs-Iv13Isb2j7Tvm-12" value="nominativo" style="text;html=1;align=center;verticalAlign=middle;whiteSpace=wrap;rounded=0;" vertex="1" parent="1">
          <mxGeometry x="147" y="140.5" width="60" height="35" as="geometry" />
        </mxCell>
        <mxCell id="m-f8hs-Iv13Isb2j7Tvm-13" value="" style="ellipse;whiteSpace=wrap;html=1;aspect=fixed;" vertex="1" parent="1">
          <mxGeometry x="670" y="128" width="20" height="20" as="geometry" />
        </mxCell>
        <mxCell id="m-f8hs-Iv13Isb2j7Tvm-14" value="" style="ellipse;whiteSpace=wrap;html=1;aspect=fixed;" vertex="1" parent="1">
          <mxGeometry x="670" y="166" width="20" height="20" as="geometry" />
        </mxCell>
        <mxCell id="m-f8hs-Iv13Isb2j7Tvm-15" value="" style="ellipse;whiteSpace=wrap;html=1;aspect=fixed;" vertex="1" parent="1">
          <mxGeometry x="670" y="200" width="20" height="20" as="geometry" />
        </mxCell>
        <mxCell id="m-f8hs-Iv13Isb2j7Tvm-16" value="nome" style="text;html=1;align=center;verticalAlign=middle;whiteSpace=wrap;rounded=0;" vertex="1" parent="1">
          <mxGeometry x="683" y="85" width="60" height="30" as="geometry" />
        </mxCell>
        <mxCell id="m-f8hs-Iv13Isb2j7Tvm-17" value="costo" style="text;html=1;align=center;verticalAlign=middle;whiteSpace=wrap;rounded=0;" vertex="1" parent="1">
          <mxGeometry x="681" y="123" width="60" height="30" as="geometry" />
        </mxCell>
        <mxCell id="m-f8hs-Iv13Isb2j7Tvm-18" value="categoria" style="text;html=1;align=center;verticalAlign=middle;whiteSpace=wrap;rounded=0;" vertex="1" parent="1">
          <mxGeometry x="690" y="161" width="60" height="30" as="geometry" />
        </mxCell>
        <mxCell id="m-f8hs-Iv13Isb2j7Tvm-19" value="disponibile" style="text;html=1;align=center;verticalAlign=middle;whiteSpace=wrap;rounded=0;" vertex="1" parent="1">
          <mxGeometry x="694" y="195" width="60" height="30" as="geometry" />
        </mxCell>
        <mxCell id="m-f8hs-Iv13Isb2j7Tvm-23" value="" style="endArrow=none;html=1;rounded=0;" edge="1" parent="1">
          <mxGeometry width="50" height="50" relative="1" as="geometry">
            <mxPoint x="240" y="290" as="sourcePoint" />
            <mxPoint x="240" y="230" as="targetPoint" />
          </mxGeometry>
        </mxCell>
        <mxCell id="m-f8hs-Iv13Isb2j7Tvm-24" value="" style="endArrow=none;html=1;rounded=0;" edge="1" parent="1">
          <mxGeometry width="50" height="50" relative="1" as="geometry">
            <mxPoint x="520" y="290" as="sourcePoint" />
            <mxPoint x="520" y="230" as="targetPoint" />
          </mxGeometry>
        </mxCell>
        <mxCell id="m-f8hs-Iv13Isb2j7Tvm-33" value="&lt;h1 style=&quot;margin-top: 0px;&quot;&gt;Requisiti funzionali&lt;/h1&gt;&lt;p&gt;1. Ogni utente ha tre personaggi la cui somma dei costi è minore o uguale a 10 (con 10 crediti per player)&lt;/p&gt;&lt;p&gt;2. Ogni personaggio è di un solo giocotre o nessuno&lt;/p&gt;&lt;p&gt;3. Dopo ogni partita i personaggi tornano disponibili&amp;nbsp;&lt;/p&gt;&lt;p&gt;&lt;br&gt;&lt;/p&gt;" style="text;html=1;whiteSpace=wrap;overflow=hidden;rounded=0;" vertex="1" parent="1">
          <mxGeometry x="50" y="465" width="720" height="145" as="geometry" />
        </mxCell>
      </root>
    </mxGraphModel>
  </diagram>
</mxfile>
